<svg viewBox="-21 -103 682.66669 682" xmlns="http://www.w3.org/2000/svg"><path fill="#62a2ff" d="m589.289062 98.296875c-29.96875-33.90625-70.222656-56.707031-114.289062-64.972656v-.992188c0-20.675781-16.820312-37.5-37.5-37.5h-149.996094c-6.898437 0-12.5 5.597657-12.5 12.5 0 6.90625 5.601563 12.5 12.5 12.5h149.996094c6.894531 0 12.5 5.605469 12.5 12.5v400c0 6.894531-5.605469 12.5-12.5 12.5h-400c-6.894531 0-12.5-5.605469-12.5-12.5v-400c0-6.894531 5.605469-12.5 12.5-12.5h150c6.90625 0 12.5-5.59375 12.5-12.5 0-6.902343-5.59375-12.5-12.5-12.5h-150c-20.679688 0-37.5 16.824219-37.5 37.5v400c0 20.679688 16.820312 37.5 37.5 37.5h400c20.679688 0 37.5-16.820312 37.5-37.5v-.988281c44.066406-8.269531 84.320312-31.066406 114.289062-64.972656 32.703126-37 50.710938-84.605469 50.710938-134.039063 0-49.433593-18.007812-97.035156-50.710938-134.035156zm-114.289062 84.03125c15.429688 11.605469 25 30.015625 25 50.003906 0 19.992188-9.570312 38.398438-25 50.007813zm0 223.53125v-94.464844c30.234375-14.347656 50-45.070312 50-79.0625 0-33.988281-19.765625-64.710937-50-79.0625v-36.273437c49.328125 15.980468 83.75 62.277344 83.75 115.335937 0 6.90625 5.59375 12.5 12.5 12.5s12.5-5.59375 12.5-12.5c0-66.726562-45.148438-124.601562-108.75-141.390625v-32.132812c80.742188 17.371094 140 89.585937 140 173.523437 0 83.941407-59.257812 156.152344-140 173.527344zm0 0"/><path fill="#62a2ff" d="m237.5 19.832031c3.285156 0 6.515625-1.335937 8.835938-3.660156 2.328124-2.324219 3.664062-5.550781 3.664062-8.839844 0-3.285156-1.335938-6.511719-3.664062-8.835937-2.320313-2.324219-5.550782-3.664063-8.835938-3.664063s-6.515625 1.339844-8.835938 3.664063c-2.328124 2.324218-3.664062 5.550781-3.664062 8.835937 0 3.289063 1.335938 6.515625 3.664062 8.839844 2.320313 2.324219 5.550782 3.660156 8.835938 3.660156zm0 0"/><path fill="#62a2ff" d="m175.824219 129.417969v147.132812c-11.941407-9.902343-27.261719-15.863281-43.949219-15.863281-38.015625 0-68.945312 30.933594-68.945312 68.949219 0 38.019531 30.929687 68.945312 68.945312 68.945312s68.949219-30.925781 68.949219-68.945312v-122.421875l173.269531-29.679688v63.832032c-11.945312-9.902344-27.261719-15.863282-43.953125-15.863282-38.015625 0-68.945313 30.929688-68.945313 68.949219 0 38.015625 30.929688 68.945313 68.945313 68.945313 37.199219 0 67.59375-29.613282 68.886719-66.503907.039062-.402343.066406-.8125.066406-1.226562v-193.367188c0-9.601562-4.210938-18.652343-11.550781-24.84375-7.339844-6.1875-16.964844-8.808593-26.441407-7.1875l-158.265624 27.113281c-15.652344 2.683594-27.011719 16.15625-27.011719 32.035157zm-43.949219 244.164062c-24.234375 0-43.945312-19.714843-43.945312-43.945312s19.710937-43.949219 43.945312-43.949219 43.949219 19.71875 43.949219 43.949219-19.714844 43.945312-43.949219 43.945312zm198.265625-35.183593c-24.234375 0-43.945313-19.71875-43.945313-43.949219 0-24.234375 19.710938-43.945313 43.945313-43.945313s43.953125 19.714844 43.953125 43.945313-19.71875 43.949219-43.953125 43.949219zm-129.316406-208.980469c0-3.667969 2.621093-6.773438 6.230469-7.390625l158.265624-27.117188c2.996094-.515625 5.109376.816406 6.105469 1.65625.996094.839844 2.667969 2.699219 2.667969 5.738282v49.863281l-173.269531 29.6875zm0 0"/></svg>