<svg height="468pt" viewBox="-79 0 468 468.78888" width="468pt" xmlns="http://www.w3.org/2000/svg"><path fill="#717171" d="m154.996094 0c-85.203125 0-154.601563 69.300781-154.601563 154.601562 0 45.976563 20.492188 89.566407 55.898438 118.898438l-7.597657 179.300781v.398438c-.078124 6.070312 3.414063 11.617187 8.925782 14.167969 5.507812 2.546874 12 1.621093 16.574218-2.367188l80.800782-69.601562 80.796875 69.601562c4.546875 3.988281 11.019531 4.910156 16.5 2.355469 5.480469-2.558594 8.933593-8.109375 8.800781-14.15625v-.199219l-7.5-179.5c35.433594-29.320312 55.964844-72.90625 56-118.898438-.097656-85.203124-69.398438-154.601562-154.597656-154.601562zm85.796875 442.898438-75.296875-64.898438c-5.804688-5.601562-15-5.601562-20.800782 0l-75.300781 64.898438 6.601563-155.597657c48.761718 29.199219 109.636718 29.199219 158.398437 0zm-85.796875-153.699219c-74.203125 0-134.601563-60.398438-134.601563-134.597657 0-74.203124 60.398438-134.601562 134.601563-134.601562 74.199218 0 134.597656 60.398438 134.597656 134.601562 0 74.199219-60.398438 134.597657-134.597656 134.597657zm0 0"/><path fill="#717171" d="m154.996094 48.601562c-58.542969 0-106 47.457032-106 106 0 58.539063 47.457031 106 106 106 58.539062 0 106-47.460937 106-106-.066406-58.515624-47.488282-105.9375-106-106zm0 192c-47.5 0-86-38.503906-86-86 0-47.5 38.5-86 86-86 47.496094 0 86 38.5 86 86-.070313 47.464844-38.535156 85.929688-86 86zm0 0"/><path fill="#717171" d="m154.996094 119.101562c-19.609375 0-35.5 15.890626-35.5 35.5 0 19.605469 15.890625 35.5 35.5 35.5 19.605468 0 35.5-15.894531 35.5-35.5-.007813-19.605468-15.898438-35.496093-35.5-35.5zm0 51c-8.5625 0-15.5-6.941406-15.5-15.5 0-8.5625 6.9375-15.5 15.5-15.5 8.558594 0 15.5 6.9375 15.5 15.5-.007813 8.554688-6.945313 15.492188-15.5 15.5zm0 0"/></svg>